<svg width="232" height="303" viewBox="0 0 232 303" fill="none" xmlns="http://www.w3.org/2000/svg">
<path d="M19.6307 154.107C19.6307 203.878 57.0117 244.896 105.152 250.438C112.257 251.26 119.139 248.233 124.195 243.155C127.229 240.109 128.933 235.985 128.933 231.684C128.933 227.384 127.229 223.259 124.195 220.214C119.139 215.136 115.012 207.573 118.83 201.508C134.065 177.252 212.964 232.951 212.964 154.117C212.964 100.545 169.686 57.1377 116.297 57.1377C62.9084 57.1377 19.6307 100.554 19.6307 154.107Z" stroke="#2A6FA6" stroke-width="6"/>
<path d="M169.464 156.274C173.468 156.274 176.714 153.027 176.714 149.02C176.714 145.014 173.468 141.767 169.464 141.767C165.46 141.767 162.214 145.014 162.214 149.02C162.214 153.027 165.46 156.274 169.464 156.274Z" fill="#2A6FA6" stroke="#2A6FA6" stroke-width="6"/>
<path d="M63.1307 156.274C67.1348 156.274 70.3807 153.027 70.3807 149.02C70.3807 145.014 67.1348 141.767 63.1307 141.767C59.1267 141.767 55.8807 145.014 55.8807 149.02C55.8807 153.027 59.1267 156.274 63.1307 156.274Z" fill="#2A6FA6" stroke="#2A6FA6" stroke-width="6"/>
<path d="M100.203 105.497C100.203 107.421 99.4387 109.266 98.079 110.627C96.7194 111.987 94.8753 112.751 92.9525 112.751C91.0297 112.751 89.1856 111.987 87.826 110.627C86.4664 109.266 85.7025 107.421 85.7025 105.497C85.7025 103.574 86.4664 101.729 87.826 100.368C89.1856 99.0079 91.0297 98.2437 92.9525 98.2437C94.8753 98.2437 96.7194 99.0079 98.079 100.368C99.4387 101.729 100.203 103.574 100.203 105.497ZM147.714 105.497C147.714 107.421 146.95 109.266 145.591 110.627C144.231 111.987 142.387 112.751 140.464 112.751C138.541 112.751 136.697 111.987 135.338 110.627C133.978 109.266 133.214 107.421 133.214 105.497C133.214 103.574 133.978 101.729 135.338 100.368C136.697 99.0079 138.541 98.2437 140.464 98.2437C142.387 98.2437 144.231 99.0079 145.591 100.368C146.95 101.729 147.714 103.574 147.714 105.497Z" fill="#2A6FA6" stroke="#2A6FA6" stroke-width="6"/>
</svg>
