<svg width="18" height="18" viewBox="0 0 18 18" fill="none" xmlns="http://www.w3.org/2000/svg">
<path d="M17 7.24005C17.0003 7.10125 16.973 6.96378 16.9199 6.83555C16.8668 6.70731 16.7889 6.59085 16.6906 6.49288L11.5065 1.30951C11.4084 1.21138 11.2919 1.13355 11.1637 1.08044C11.0355 1.02733 10.8981 1 10.7594 1C10.6206 1 10.4832 1.02733 10.355 1.08044C10.2268 1.13355 10.1103 1.21138 10.0122 1.30951L7.84394 3.4778L3.43195 5.13289C3.25832 5.19788 3.10485 5.30741 2.98695 5.45048C2.86905 5.59355 2.79087 5.76513 2.76026 5.94798L1.00633 16.4717C0.995354 16.5367 0.998679 16.6032 1.01608 16.6668C1.03348 16.7303 1.06453 16.7893 1.10707 16.8396C1.14961 16.8899 1.20261 16.9303 1.26238 16.958C1.32215 16.9857 1.38724 17 1.45312 17C1.47839 16.9999 1.50362 16.9979 1.52859 16.994L12.0522 15.24C12.2351 15.2095 12.4069 15.1314 12.5501 15.0135C12.6933 14.8956 12.8029 14.742 12.868 14.5683L14.5223 10.1563L16.6913 7.98721C16.7896 7.88923 16.8674 7.77275 16.9204 7.64451C16.9734 7.51627 17.0004 7.3788 17 7.24005ZM12.019 14.2506C12.0097 14.2753 11.9941 14.2972 11.9737 14.314C11.9533 14.3309 11.9288 14.342 11.9027 14.3464L2.77309 15.8679L6.76321 11.877C7.17257 12.1295 7.66041 12.2229 8.13406 12.1393C8.60772 12.0558 9.03421 11.8012 9.33252 11.4239C9.63083 11.0467 9.78019 10.5729 9.75222 10.0928C9.72425 9.61263 9.52091 9.15946 9.18082 8.81936C8.84072 8.47927 8.38756 8.27592 7.90741 8.24795C7.42726 8.21999 6.95356 8.36934 6.57628 8.66766C6.199 8.96597 5.94442 9.39247 5.8609 9.86613C5.77738 10.3398 5.87073 10.8276 6.12322 11.237L2.13235 15.2287L3.65459 6.09666C3.65904 6.07081 3.67015 6.04656 3.68682 6.02631C3.7035 6.00606 3.72516 5.99051 3.74968 5.98118L7.98054 4.39629L13.6038 10.0197L12.019 14.2506ZM6.73604 10.2076C6.73604 9.9986 6.798 9.79432 6.9141 9.62056C7.0302 9.44681 7.19522 9.31138 7.38828 9.23141C7.58135 9.15144 7.79379 9.13051 7.99875 9.17128C8.20371 9.21205 8.39197 9.31268 8.53974 9.46045C8.6875 9.60822 8.78813 9.79649 8.8289 10.0014C8.86967 10.2064 8.84875 10.4189 8.76878 10.6119C8.68881 10.805 8.55338 10.97 8.37963 11.0861C8.20587 11.2022 8.00159 11.2642 7.79262 11.2642C7.5124 11.2642 7.24365 11.1529 7.0455 10.9547C6.84735 10.7566 6.73604 10.4878 6.73604 10.2076ZM16.0498 7.34722L14.1321 9.26494L8.73449 3.86799L10.6529 1.94951C10.667 1.93547 10.6836 1.92434 10.7019 1.91674C10.7203 1.90915 10.7399 1.90524 10.7597 1.90524C10.7796 1.90524 10.7992 1.90915 10.8175 1.91674C10.8359 1.92434 10.8525 1.93547 10.8665 1.94951L16.0498 7.13363C16.0639 7.14765 16.075 7.1643 16.0826 7.18262C16.0902 7.20095 16.0941 7.22059 16.0941 7.24042C16.0941 7.26026 16.0902 7.2799 16.0826 7.29823C16.075 7.31655 16.0639 7.3332 16.0498 7.34722Z" fill="black" stroke="black"/>
</svg>
