<svg width="15" height="15" viewBox="0 0 15 15" fill="none" xmlns="http://www.w3.org/2000/svg">
<path d="M14.125 15C12.3333 15 10.5869 14.6006 8.88583 13.8017C7.18472 13.0028 5.67778 11.9472 4.365 10.635C3.05222 9.32278 1.99667 7.81583 1.19833 6.11417C0.4 4.4125 0.000555556 2.66611 0 0.875C0 0.625 0.0833333 0.416667 0.25 0.25C0.416667 0.0833333 0.625 0 0.875 0H4.25C4.44444 0 4.61806 0.0624999 4.77083 0.1875C4.92361 0.3125 5.01389 0.472222 5.04167 0.666667L5.58333 3.58333C5.61111 3.77778 5.6075 3.955 5.5725 4.115C5.5375 4.275 5.45778 4.41722 5.33333 4.54167L3.33333 6.58333C3.91667 7.58333 4.64583 8.52083 5.52083 9.39583C6.39583 10.2708 7.36111 11.0278 8.41667 11.6667L10.375 9.70833C10.5 9.58333 10.6633 9.48972 10.865 9.4275C11.0667 9.36528 11.2644 9.34778 11.4583 9.375L14.3333 9.95833C14.5278 10 14.6875 10.0939 14.8125 10.24C14.9375 10.3861 15 10.5561 15 10.75V14.125C15 14.375 14.9167 14.5833 14.75 14.75C14.5833 14.9167 14.375 15 14.125 15Z" fill="black"/>
</svg>
