<svg width="16" height="18" viewBox="0 0 16 18" fill="none" xmlns="http://www.w3.org/2000/svg">
<path d="M2 15.9429H5V9.77143H11V15.9429H14V6.68571L8 2.05714L2 6.68571V15.9429ZM2 18C1.45 18 0.979002 17.7984 0.587002 17.3952C0.195002 16.992 -0.000664969 16.5079 1.69779e-06 15.9429V6.68571C1.69779e-06 6.36 0.0710015 6.05143 0.213002 5.76C0.355002 5.46857 0.550669 5.22857 0.800002 5.04L6.8 0.411429C6.98334 0.274286 7.175 0.171428 7.375 0.102857C7.575 0.0342856 7.78334 0 8 0C8.21667 0 8.425 0.0342856 8.625 0.102857C8.825 0.171428 9.01667 0.274286 9.2 0.411429L15.2 5.04C15.45 5.22857 15.646 5.46857 15.788 5.76C15.93 6.05143 16.0007 6.36 16 6.68571V15.9429C16 16.5086 15.804 16.993 15.412 17.3962C15.02 17.7994 14.5493 18.0007 14 18H9V11.8286H7V18H2Z" fill="black"/>
</svg>
