<svg width="228" height="177" viewBox="0 0 228 177" fill="none" xmlns="http://www.w3.org/2000/svg">
<path d="M3 174V163.941C3 125.054 34.5245 93.5293 73.4118 93.5293C112.299 93.5293 143.824 125.054 143.824 163.941V174" stroke="#7088C6" stroke-width="6" stroke-linecap="round"/>
<path d="M123.706 113.647C123.706 85.8707 146.223 63.353 174 63.353C201.776 63.353 224.294 85.8707 224.294 113.647V118.677" stroke="#7088C6" stroke-width="6" stroke-linecap="round"/>
<path d="M73.4121 93.5292C95.633 93.5292 113.647 75.5148 113.647 53.2939C113.647 31.0725 95.633 13.0586 73.4121 13.0586C51.1907 13.0586 33.1768 31.0725 33.1768 53.2939C33.1768 75.5148 51.1907 93.5292 73.4121 93.5292Z" stroke="#7088C6" stroke-width="6" stroke-linecap="round" stroke-linejoin="round"/>
<path d="M174 63.3529C190.666 63.3529 204.176 49.8424 204.176 33.1765C204.176 16.5105 190.666 3 174 3C157.333 3 143.823 16.5105 143.823 33.1765C143.823 49.8424 157.333 63.3529 174 63.3529Z" stroke="#7088C6" stroke-width="6" stroke-linecap="round" stroke-linejoin="round"/>
</svg>
