<svg width="26" height="26" viewBox="0 0 26 26" fill="none" xmlns="http://www.w3.org/2000/svg">
<path d="M4.33334 22.75C4.02639 22.75 3.76892 22.646 3.56092 22.438C3.35292 22.23 3.24928 21.9729 3.25 21.6667C3.25 21.3597 3.354 21.1023 3.562 20.8943C3.77 20.6863 4.02711 20.5826 4.33334 20.5833H5.41667V5.41667C5.41667 4.82083 5.629 4.31058 6.05367 3.88592C6.47834 3.46125 6.98823 3.24928 7.58334 3.25H18.4167C19.0125 3.25 19.5228 3.46234 19.9474 3.887C20.3721 4.31167 20.5841 4.82156 20.5833 5.41667V20.5833H21.6667C21.9736 20.5833 22.2311 20.6873 22.4391 20.8953C22.6471 21.1033 22.7507 21.3604 22.75 21.6667C22.75 21.9736 22.646 22.2311 22.438 22.4391C22.23 22.6471 21.9729 22.7507 21.6667 22.75H4.33334ZM7.58334 20.5833H18.4167V5.41667H7.58334V20.5833ZM10.8333 14.0833C11.1403 14.0833 11.3978 13.9793 11.6058 13.7713C11.8138 13.5633 11.9174 13.3062 11.9167 13C11.9167 12.6931 11.8127 12.4356 11.6047 12.2276C11.3967 12.0196 11.1396 11.9159 10.8333 11.9167C10.5264 11.9167 10.2689 12.0207 10.0609 12.2287C9.85292 12.4367 9.74928 12.6938 9.75 13C9.75 13.3069 9.854 13.5644 10.062 13.7724C10.27 13.9804 10.5271 14.0841 10.8333 14.0833Z" fill="black"/>
</svg>
